<svg data-v-423bf9ae="" xmlns="http://www.w3.org/2000/svg" viewBox="0 0 232.04082115249594 60" class="font"><!----><!----><!----><g data-v-423bf9ae="" id="2afd0777-9301-4efa-b423-8b534014125c" fill="white" transform="matrix(6.1224488604322,0,0,6.1224488604322,0.0000018688203908823198,-4.285714427340487)"><path d="M4.13 0.70L4.13 0.70L4.44 0.70L4.44 10.50L4.13 10.50L3.15 10.50L2.90 10.50L2.90 5.60L1.54 5.60L1.54 10.50L0.98 10.50L0 10.50L0 0.70L0.98 0.70L1.54 0.70L1.54 4.06L2.90 4.06L2.90 0.70L3.15 0.70L4.13 0.70ZM10.18 0.70L10.18 0.70L10.54 0.70L10.44 1.05L8.74 7.13L8.74 10.49L8.74 10.50L8.46 10.50L7.48 10.50L7.20 10.50L7.20 10.49L7.20 7.13L5.47 1.05L5.39 0.70L5.75 0.70L6.75 0.70L6.96 0.70L7.01 0.90L7.97 4.37L8.92 0.90L8.97 0.70L9.18 0.70L10.18 0.70ZM15.72 1.68L15.72 1.67L15.72 1.82L15.72 4.49L15.72 4.49Q15.72 4.96 15.40 5.28L15.40 5.28L15.40 5.28Q15.08 5.60 14.62 5.60L14.62 5.60L12.82 5.60L12.81 10.50L11.28 10.50L11.28 4.06L12.81 4.06L14.18 4.06L14.18 2.25L12.81 2.25L12.81 4.06L11.28 1.02L11.28 0.70L14.62 0.70L14.62 0.70Q15.04 0.70 15.35 0.99L15.35 0.99L15.35 0.99Q15.67 1.27 15.72 1.68L15.72 1.68ZM18.20 0.70L18.20 0.70L20.66 0.70L20.66 1.68L20.66 2.24L18.20 2.24L18.20 4.07L20.16 4.07L20.16 4.35L20.16 5.33L20.16 5.61L18.20 5.61L18.20 8.96L20.66 8.96L20.66 9.52L20.66 10.50L18.20 10.50L16.66 10.50L16.66 9.48L16.66 4.07L18.20 4.07L16.66 1.04L16.66 0.70L18.20 0.70ZM25.97 0.70L25.97 0.70L25.97 2.24L24.58 2.24L24.58 8.67L24.58 10.50L23.04 10.50L23.04 8.67L23.04 2.24L21.56 2.24L21.56 0.70L23.04 0.70L24.58 0.70L25.97 0.70ZM30.62 0.70L30.62 0.70L33.01 0.70L33.01 10.50L31.47 10.50L31.47 5.24L30.62 9.77L29.27 9.77L28.42 5.24L28.42 10.50L26.88 10.50L26.88 0.70L29.27 0.70L29.95 4.61L30.62 0.70ZM35.46 8.96L35.46 8.96L37.90 8.96L37.90 10.50L35.46 10.50L33.92 10.50L33.92 10.50L33.92 8.96L33.92 8.96L33.92 0.70L35.46 0.70L35.46 8.96Z"></path></g><!----><!----></svg>